<svg fill="none" height="24" viewBox="0 0 24 24" width="24" xmlns="http://www.w3.org/2000/svg"><path d="m6 14c-.1494 0-.31896 0-.49965 0-1.38071 0-2.50035-1.1193-2.50035-2.5 0-1.3807 1.11929-2.5 2.5-2.5h.5m0 5c-.57706 0-1.06953.4172-1.1644.9864l-.63002 3.7801c-.10761.6457.39032 1.2335 1.04492 1.2335.44914 0 .84946-.2832.99895-.7068l1.75055-4.9599m-2-.3333c.00002-1.7085 0-5 0-5m0 5 6 1m-6-6 6-1m0 0 4-2v11l-4-2m0-7v7m7-4h2m-2-4 2-1m-2 9 2 1" stroke="#09090b" stroke-linecap="round" stroke-linejoin="round"/></svg>